<svg id="Layer_1" enable-background="new 0 0 256 256" height="512" viewBox="0 0 256 256" width="512" xmlns="http://www.w3.org/2000/svg"><g id="Layer_34"><g><path d="m233.5 36.8h-211c-6.6 0-12 5.4-12 12v140 .9c.6 6.1 5.8 10.7 11.9 10.6h211.2c6.1.1 11.3-4.5 11.9-10.6 0-.3 0-.6 0-.9v-140c0-6.7-5.4-12-12-12z" fill="#3a70bf"/><path d="m233.6 190.2c.9.1 1.7-.5 1.9-1.4v-.1-140c0-1.1-.9-2-2-2h-211c-1.1 0-2 .9-2 2v140 .2c.2.8 1 1.4 1.9 1.3z" fill="#3caadc"/><path d="m179.9 190.2-.9-15.6c-.2-4.4-3.3-8.1-7.6-9.2l-19.8-5-11.9-5.9-5.5 11.3c-.4.8-1.3 1.4-2.2 1.4h-8.6c-1 0-1.8-.6-2.2-1.4l-5.1-11.2-11.9 5.9-19.8 5c-4.3 1.1-7.3 4.8-7.6 9.2l-.9 15.6z" fill="#c7d7e5"/><g fill="#edf4fc"><path d="m248.6 200.2h-241.2c-2.7 0-4.9 2.2-4.9 4.9 0 7.8 6.3 14.1 14.1 14.1h222.8c7.8 0 14.1-6.3 14.1-14.1 0-2.7-2.2-4.8-4.9-4.9z"/><path d="m151.7 160.5-5.9 14.5c-.5 1.1-1.7 1.7-2.9 1.2-.3-.1-.7-.4-.9-.7l-7.8-9.6 5.5-11.3z"/><path d="m110.2 175c.5 1.1 1.7 1.7 2.9 1.2.3-.1.7-.4.9-.7l7.5-9.4c-.1-.1-.1-.2-.2-.3l-5.1-11.2-7.9 3.9-4 2z"/></g><path d="m165.6 69.2h-75.2c-1.3 0-2.3 1-2.3 2.3v78.3c0 .7.6 1.3 1.3 1.3.2 0 .5-.1.7-.2l6.9-4.1c.7-.4 1.5-.4 2.2 0l7.8 4.7c.7.4 1.5.4 2.2 0l7.8-4.7c.7-.4 1.5-.4 2.2 0l7.8 4.7c.7.4 1.5.4 2.2 0l7.8-4.7c.7-.4 1.5-.4 2.2 0l7.8 4.7c.7.4 1.5.4 2.2 0l7.8-4.7c.7-.4 1.5-.4 2.2 0l6.9 4.1c.6.4 1.5.2 1.8-.5.1-.2.2-.4.2-.7v-78.1c-.2-1.3-1.2-2.3-2.5-2.4z" fill="#bf6132"/><path d="m139.1 146.9c-.7-.4-1.5-.4-2.2 0l-7.8 4.7c-.7.4-1.5.4-2.2 0l-7.8-4.7c-.7-.4-1.5-.4-2.2 0l-.7.4v7.3l5.1 11.2c.4.9 1.3 1.4 2.2 1.4h8.6c.9 0 1.8-.5 2.2-1.4l5.5-11.3v-7.3z" fill="#f2ba94"/><circle cx="143.9" cy="105.2" fill="#ef4460" r="5.8"/><circle cx="113.1" cy="105.2" fill="#ef4460" r="5.8"/><path d="m233.5 46.8h-211c-1.1 0-2 .9-2 2v8.5h215v-8.5c0-1.1-.9-2-2-2z" fill="#edf4fc"/><path d="m36 46.8h-13.5c-1.1 0-2 .9-2 2v8.5h15.5z" fill="#9be5f9"/><path d="m84 200.2v1.7c0 3.7 3 6.8 6.8 6.8h75.4c3.7 0 6.8-3 6.8-6.8v-1.7z" fill="#c7d7e5"/><path d="m66.6 21.9c-4-.7-7.1-3.8-7.9-7.7 0-.1-.1-.2-.2-.1-.1 0-.1.1-.1.1-.8 4-3.9 7-7.9 7.7-.1 0-.2.1-.1.2 0 .1.1.1.1.1 4 .7 7.1 3.8 7.9 7.7 0 .1.1.2.2.1.1 0 .1-.1.1-.1.8-4 3.9-7 7.9-7.7.1 0 .2-.1.1-.2 0 0 0-.1-.1-.1z" fill="#f5c84c"/><circle cx="105.7" cy="233.6" fill="#b2e26d" r="3"/><circle cx="88.7" cy="10.6" fill="#ef4460" r="3"/><circle cx="202.7" cy="21.6" fill="#f5c84c" r="3"/><path d="m141.3 237.9h-2.1v-2.1c0-1.5-1.3-2.8-2.8-2.8s-2.8 1.3-2.8 2.8v2.1h-2.1c-1.5 0-2.8 1.3-2.8 2.8s1.3 2.8 2.8 2.8h2.1v2.1c0 1.5 1.3 2.8 2.8 2.8s2.8-1.3 2.8-2.8v-2.1h2.1c1.5 0 2.8-1.3 2.8-2.8s-1.3-2.8-2.8-2.8z" fill="#3caadc"/><path d="m16.6 221.8h222.8c9.2 0 16.6-7.4 16.6-16.6 0-4.1-3.3-7.4-7.4-7.4h-4c2.2-2.5 3.4-5.7 3.4-9v-140c0-8-6.5-14.5-14.5-14.5h-211c-8 0-14.5 6.5-14.5 14.5v140c0 3.3 1.2 6.5 3.4 9h-4c-4.1 0-7.4 3.3-7.4 7.4 0 9.1 7.4 16.5 16.6 16.6zm-3.6-173c0-5.2 4.3-9.5 9.5-9.5h211c5.2 0 9.5 4.3 9.5 9.5v140c-.1 5.1-4.3 9.1-9.4 9h-211.2c-5.1.1-9.3-3.9-9.4-9zm157.4 154c-.4 2-2.2 3.5-4.2 3.5h-75.4c-2.1 0-3.8-1.5-4.2-3.5zm-163 0h74.1c.4 4.8 4.4 8.5 9.2 8.5h75.4c4.8 0 8.8-3.7 9.2-8.5h73.1c1.3 0 2.4 1.1 2.4 2.4 0 6.4-5.2 11.6-11.6 11.6h-222.6c-6.4 0-11.6-5.2-11.6-11.6 0-1.4 1.1-2.4 2.4-2.4z"/><path d="m22.4 192.8h211.2c2.3.1 4.3-1.7 4.4-4v-140c0-2.5-2-4.5-4.5-4.5h-211c-2.5 0-4.5 2-4.5 4.5v140c.1 2.3 2.1 4 4.4 4zm56.3-5 .7-13c.2-3.3 2.5-6.1 5.7-6.9l17.7-4.5 5.1 12.5c1 2.4 3.7 3.6 6.1 2.6.7-.3 1.4-.8 1.9-1.4l6.1-7.6c.5.2 1 .2 1.5.2h8.6c.6 0 1.2-.1 1.8-.4l6.2 7.7c1.6 2 4.6 2.3 6.6.7.6-.5 1.1-1.2 1.4-1.9l5.1-12.5 17.7 4.5c3.2.8 5.5 3.6 5.7 6.9l.7 13zm62.2-29.9 7.6 3.7-4.8 11.9-6.4-8zm-8.9 6.9h-8.5l-4.8-10.7v-4.4l6.9 4.1c1.5.9 3.3.9 4.7 0l6.9-4.1v4.4zm9-19.6c-.2-.1-2.6-2.1-5.4-.4l-7.6 4.6-7.6-4.6c-.6-.3-1.2-.5-1.8-.6-1.3-.1-2.6.3-3.6 1l-6.9 4.2-7.6-4.6c-1.5-.9-3.3-.9-4.7 0l-5.1 3.1v-76.1h74.8v76.1l-5.1-3.1c-1.5-.9-3.3-.9-4.7 0l-7.6 4.6zm-26 12.8 3.5 7.8-6.2 7.7-4.8-11.9zm-76.5-108.8h194.5v5.5h-194.5zm-15.5 0h10.5v5.5h-10.5zm0 10.6h210v128h-50.7l-.7-13.2c-.3-5.5-4.1-10.2-9.5-11.5l-19.5-4.9-10.3-5.1v-1.3l3.4 2c1.5.9 3.3.9 4.7 0l7.6-4.6 6.7 4c1.8 1.1 4.2.5 5.3-1.3.4-.6.5-1.3.5-2v-78.3c0-2.7-2.2-4.8-4.8-4.8h-75.3c-2.7 0-4.8 2.2-4.8 4.8v78.3c0 2.1 1.7 3.8 3.8 3.8.7 0 1.4-.2 2-.5l6.7-4 7.6 4.6c1.5.9 3.3.9 4.7 0l3.3-2v1.3l-10.3 5.1-19.5 4.8c-5.3 1.3-9.2 6-9.5 11.5l-.7 13.2h-50.7z"/><path d="m152.2 105.2c0-4.6-3.7-8.3-8.3-8.3s-8.3 3.7-8.3 8.3 3.7 8.3 8.3 8.3c4.6.1 8.3-3.6 8.3-8.3zm-8.3 3.4c-1.8 0-3.3-1.5-3.3-3.3s1.5-3.3 3.3-3.3 3.3 1.5 3.3 3.3c0 1.8-1.5 3.3-3.3 3.3z"/><path d="m113.1 96.9c-4.6 0-8.3 3.7-8.3 8.3s3.7 8.3 8.3 8.3 8.3-3.7 8.3-8.3-3.7-8.3-8.3-8.3zm0 11.7c-1.8 0-3.3-1.5-3.3-3.3s1.5-3.3 3.3-3.3 3.3 1.5 3.3 3.3c0 1.8-1.5 3.3-3.3 3.3z"/></g></g></svg>